{"title":"Imaginarium Doctor Parnassus DVDSCR LiNE READNFO XViD-IMAGiNE","uid":5305588,"size":1460742924,"categoryP":"video","categoryS":"movies","magnet":"?xt=urn:btih:492b549dbc4e197bdd019776bc9486b88ce49657&amp;dn=Imaginarium+Doctor+Parnassus+DVDSCR+LiNE+READNFO+XViD-IMAGiNE&amp;tr=udp%3A%2F%2Ftracker.openbittorrent.com%3A80&amp;tr=udp%3A%2F%2Fopen.demonii.com%3A1337&amp;tr=udp%3A%2F%2Ftracker.coppersurfer.tk%3A6969&amp;tr=udp%3A%2F%2Fexodus.desync.com%3A6969","seeders":0,"leechers":0,"uploader":"raymondhome","files":-1,"time":1264373507,"description":"Love for All and Sharing is the first step to solving all the problems of humanity.\n\nWebsites I want to share.\n\n    &lt;a href=&quot;\nhttp://www.shareintl.org/&quot; rel=&quot;nofollow&quot; target=&quot;_NEW&quot;&gt;\nhttp://www.shareintl.org/&lt;/a&gt;\n\n    &lt;a href=&quot;\nhttp://www.lightmiddleway.com&quot; rel=&quot;nofollow&quot; target=&quot;_NEW&quot;&gt;\nhttp://www.lightmiddleway.com&lt;/a&gt;\n\n\nThank you very much\n\nNo credit for me...credit to EVERYONE for sharing\n &lt;a href=&quot;\nhttp://thepiratebay.se/user/raymondhome/&quot; rel=&quot;nofollow&quot; target=&quot;_NEW&quot;&gt;\nhttp://thepiratebay.se/user/raymondhome/&lt;/a&gt;\n\nVideo\nID : 0\nFormat : MPEG-4 Visual\nFormat profile : Advanced Simple@L5\nFormat settings, BVOP : Yes\nFormat settings, QPel : No\nFormat settings, GMC : No warppoints\nFormat settings, Matrix : Default (H.263)\nMuxing mode : Packed bitstream\nCodec ID : XVID\nCodec ID/Hint : XviD\nDuration : 1h 57mn\nBit rate : 1 540 Kbps\nWidth : 624 pixels\nHeight : 336 pixels\nDisplay aspect ratio : 1.857\nFrame rate : 25.000 fps\nResolution : 24 bits\nColorimetry : 4:2:0\nScan type : Progressive\nBits/(Pixel*Frame) : 0.294\nStream size : 1.26 GiB (94%)\nWriting library : XviD 1.2.1 (UTC 2008-12-04)\n\nAudio\nID : 1\nFormat : MPEG Audio\nCodec ID : 55\nCodec ID/Hint : MP3\nDuration : 1h 57mn\nBit rate : 96.0 Kbps\nChannel(s) : 2 channels\nSampling rate : 22.05 KHz\nStream size : 80.4 MiB (6%)\nAlignment : Split accross interleaves\nInterleave, duration : 40 ms (1.00 video frame)\nInterleave, preload duration : 500 ms\n\nNOTES:\n\nIMAGiNE bringing you another release.....\n\nRight now no doubt the tagging of this will cause some to moan.....but it all honesty we could have tagged it several different ways and some would still question them so\n\nWe opted for DVDSCR LiNE ......based on the same as a R5 LiNE tag.Video is a dvdscr but the audio is line so ...\n\nAnyway we used the spanish dvdscr that has been out for a while but we was holding back until we got some decent audio and here it is.\n\nVideo and audio have both been tweaked and audio needed to be synced....got too be honest and say there is some slight sync issues here and there but not by much,50ms give or take....but this was a bitch to sync so ......if you want perfection do it yourself\n\ncredit IMAGiNE &amp; ghostman BIG TIME &amp; to all the people who made it possible for me to share this with everyone\n\n*****help what we can with haiti...the world is ONE big family*****","torrent":{"xt":"urn:btih:492b549dbc4e197bdd019776bc9486b88ce49657","amp;dn":"Imaginarium+Doctor+Parnassus+DVDSCR+LiNE+READNFO+XViD-IMAGiNE","amp;tr":["udp%3A%2F%2Ftracker.openbittorrent.com%3A80","udp%3A%2F%2Fopen.demonii.com%3A1337","udp%3A%2F%2Ftracker.coppersurfer.tk%3A6969","udp%3A%2F%2Fexodus.desync.com%3A6969"],"infoHash":"492b549dbc4e197bdd019776bc9486b88ce49657","infoHashBuffer":{"type":"Buffer","data":[73,43,84,157,188,78,25,123,221,1,151,118,188,148,134,184,140,228,150,87]},"announce":[],"urlList":[]}}